<svg width="26" height="26" fill="none" xmlns="http://www.w3.org/2000/svg"><path fill="#E5E5E5" d="M0 0h26v26H0z"/><g clip-path="url(#a)"><path fill="#202020" d="M-1181-24H99v1908h-1280z"/><path fill="#202020" d="M-1181-24H99v74h-1280z"/><g filter="url(#b)"><rect x="-71" y="-3" width="100" height="32" rx="16" fill="#202020"/></g><rect width="26" height="26" rx="13" fill="#313131"/><path fill-rule="evenodd" clip-rule="evenodd" d="M14.43 14.968a3.751 3.751 0 1 0-2.86 0 8.614 8.614 0 0 0-3.762 1.613l1.382 1.838A6.317 6.317 0 0 1 13 17.15c1.431 0 2.748.472 3.81 1.27l1.381-1.84a8.614 8.614 0 0 0-3.761-1.612Z" fill="#fff"/></g><defs><clipPath id="a"><path fill="#fff" transform="translate(-1181 -24)" d="M0 0h1280v1908H0z"/></clipPath><filter id="b" x="-85" y="-14" width="128" height="60" filterUnits="userSpaceOnUse" color-interpolation-filters="sRGB"><feFlood flood-opacity="0" result="BackgroundImageFix"/><feColorMatrix in="SourceAlpha" values="0 0 0 0 0 0 0 0 0 0 0 0 0 0 0 0 0 0 127 0" result="hardAlpha"/><feOffset dy="3"/><feGaussianBlur stdDeviation="7"/><feColorMatrix values="0 0 0 0 0 0 0 0 0 0 0 0 0 0 0 0 0 0 0.08 0"/><feBlend in2="BackgroundImageFix" result="effect1_dropShadow_891_3857"/><feBlend in="SourceGraphic" in2="effect1_dropShadow_891_3857" result="shape"/></filter></defs></svg>